<svg width="192" height="192" xmlns="http://www.w3.org/2000/svg" viewBox="0 0 192 192">
   <defs>
    <filter id="f1" x="-10%" y="-10%" width="200%" height="200%">
      <feGaussianBlur result="blurOut" in="SourceAlpha" stdDeviation="4" />
      <feBlend in="SourceGraphic" in2="blurOut" mode="normal" />
    </filter>
  </defs>
  <rect width="100%" height="100%" rx="32" fill-opacity="0" fill="#a1bff5"/>
  <path d="M8 32A14 14 0 0 1 36 32L36 88Q36 92 38 97L72 152A14 14 0 0 1 48 166L10 103Q8 100 8 96Z" fill="#1874dd"/>
  <path d="M156 32A14 14 0 0 1 184 32L184 96Q184 100 182 103L144 166A14 14 0 0 1 120 153L153 98Q156 93 156 88Z" fill="#1874dd"/>
  <path d="M82 32A14 14 0 0 1 110 32L110 88Q110 92 113 97L144.7 153A14 14 0 0 1 120 166L96 125L72 167A14 14 0 0 1 47.9 153L79 98Q82 93 82 88Z" fill="#ee315a" filter="url(#f1)"/>
</svg>